REM DIRINDEX 1\2,1\3,1\4,1\5
REM DIRNAME "folder01","folder02","folder03","folder04","folder05"
TITLE ""
FILE "P1Q_t_0610-0619.mp3" MP3
  TRACK 01 AUDIO
    TITLE "3:cjc173_2766"
    INDEX 01 00:00:00
  TRACK 02 AUDIO
    TITLE "0:"
    INDEX 01 00:01:25
  TRACK 03 AUDIO
    TITLE "4:cjc173_2767"
    INDEX 01 00:01:49
  TRACK 04 AUDIO
    TITLE "0:"
    INDEX 01 00:05:66
  TRACK 05 AUDIO
    TITLE "5:cjc173_2768"
    INDEX 01 00:06:11
  TRACK 06 AUDIO
    TITLE "0:"
    INDEX 01 00:11:63
  TRACK 07 AUDIO
    TITLE "3:cjc173_2769"
    INDEX 01 00:12:33
  TRACK 08 AUDIO
    TITLE "0:"
    INDEX 01 00:13:60
  TRACK 09 AUDIO
    TITLE "4:cjc173_2770"
    INDEX 01 00:14:07
  TRACK 10 AUDIO
    TITLE "0:"
    INDEX 01 00:18:73
  TRACK 11 AUDIO
    TITLE "5:cjc173_2771"
    INDEX 01 00:19:19
  TRACK 12 AUDIO
    TITLE "0:"
    INDEX 01 00:24:66
  TRACK 13 AUDIO
    TITLE "3:cjc173_2772"
    INDEX 01 00:25:36
  TRACK 14 AUDIO
    TITLE "0:"
    INDEX 01 00:26:57
  TRACK 15 AUDIO
    TITLE "4:cjc173_2773"
    INDEX 01 00:27:05
  TRACK 16 AUDIO
    TITLE "0:"
    INDEX 01 00:29:10
  TRACK 17 AUDIO
    TITLE "5:cjc173_2774"
    INDEX 01 00:29:30
  TRACK 18 AUDIO
    TITLE "0:"
    INDEX 01 00:35:56
  TRACK 19 AUDIO
    TITLE "3:cjc173_2775"
    INDEX 01 00:36:30
  TRACK 20 AUDIO
    TITLE "0:"
    INDEX 01 00:37:49
  TRACK 21 AUDIO
    TITLE "4:cjc173_2776"
    INDEX 01 00:37:70
  TRACK 22 AUDIO
    TITLE "0:"
    INDEX 01 00:39:26
  TRACK 23 AUDIO
    TITLE "5:cjc173_2777"
    INDEX 01 00:39:46
  TRACK 24 AUDIO
    TITLE "0:"
    INDEX 01 00:44:60
  TRACK 25 AUDIO
    TITLE "3:cjc173_2778"
    INDEX 01 00:45:36
  TRACK 26 AUDIO
    TITLE "0:"
    INDEX 01 00:46:46
  TRACK 27 AUDIO
    TITLE "4:cjc173_2779"
    INDEX 01 00:46:67
  TRACK 28 AUDIO
    TITLE "0:"
    INDEX 01 00:49:62
  TRACK 29 AUDIO
    TITLE "5:cjc173_2780"
    INDEX 01 00:50:06
  TRACK 30 AUDIO
    TITLE "0:"
    INDEX 01 00:54:43
  TRACK 31 AUDIO
    TITLE "3:cjc173_2781"
    INDEX 01 00:55:13
  TRACK 32 AUDIO
    TITLE "0:"
    INDEX 01 00:56:09
  TRACK 33 AUDIO
    TITLE "4:cjc173_2782"
    INDEX 01 00:56:32
  TRACK 34 AUDIO
    TITLE "0:"
    INDEX 01 00:58:16
  TRACK 35 AUDIO
    TITLE "5:cjc173_2783"
    INDEX 01 00:58:35
  TRACK 36 AUDIO
    TITLE "0:"
    INDEX 01 01:03:34
  TRACK 37 AUDIO
    TITLE "3:cjc173_2784"
    INDEX 01 01:04:08
  TRACK 38 AUDIO
    TITLE "0:"
    INDEX 01 01:05:25
  TRACK 39 AUDIO
    TITLE "4:cjc173_2785"
    INDEX 01 01:05:45
  TRACK 40 AUDIO
    TITLE "0:"
    INDEX 01 01:08:34
  TRACK 41 AUDIO
    TITLE "5:cjc173_2786"
    INDEX 01 01:08:53
  TRACK 42 AUDIO
    TITLE "0:"
    INDEX 01 01:13:31
  TRACK 43 AUDIO
    TITLE "3:cjc173_2787"
    INDEX 01 01:14:03
  TRACK 44 AUDIO
    TITLE "0:"
    INDEX 01 01:15:06
  TRACK 45 AUDIO
    TITLE "4:cjc173_2788"
    INDEX 01 01:15:28
  TRACK 46 AUDIO
    TITLE "0:"
    INDEX 01 01:18:06
  TRACK 47 AUDIO
    TITLE "5:cjc173_2789"
    INDEX 01 01:18:22
  TRACK 48 AUDIO
    TITLE "0:"
    INDEX 01 01:22:08
  TRACK 49 AUDIO
    TITLE "3:cjc173_2790"
    INDEX 01 01:22:53
  TRACK 50 AUDIO
    TITLE "0:"
    INDEX 01 01:23:70
  TRACK 51 AUDIO
    TITLE "4:cjc173_2791"
    INDEX 01 01:24:17
  TRACK 52 AUDIO
    TITLE "0:"
    INDEX 01 01:27:39
  TRACK 53 AUDIO
    TITLE "5:cjc173_2792"
    INDEX 01 01:27:58
  TRACK 54 AUDIO
    TITLE "0:"
    INDEX 01 01:31:66
  TRACK 55 AUDIO
    TITLE "3:cjc173_2793"
    INDEX 01 01:32:40
  TRACK 56 AUDIO
    TITLE "0:"
    INDEX 01 01:33:41
  TRACK 57 AUDIO
    TITLE "4:cjc173_2794"
    INDEX 01 01:33:67
  TRACK 58 AUDIO
    TITLE "0:"
    INDEX 01 01:37:08
  TRACK 59 AUDIO
    TITLE "5:cjc173_2795"
    INDEX 01 01:37:27
  TRACK 60 AUDIO
    TITLE "0:"
    INDEX 01 01:41:74
